<svg id="visual" viewBox="0 0 900 600" width="900" height="600" xmlns="http://www.w3.org/2000/svg" xmlns:xlink="http://www.w3.org/1999/xlink" version="1.1"><g transform="translate(486.73392800824763 333.03176613345045)"><path d="M152.5 -253.7C168.9 -197.9 133.9 -115 130.1 -58.4C126.2 -1.9 153.4 28.4 173.7 84.3C193.9 140.3 207.2 221.8 177.1 245.4C146.9 268.9 73.5 234.5 27.6 196.5C-18.4 158.6 -36.7 117.2 -66.4 93.5C-96 69.8 -136.9 63.8 -183.9 32.9C-230.8 2.1 -283.7 -53.7 -264 -76.9C-244.2 -100.2 -151.8 -90.9 -95.7 -133.9C-39.6 -176.8 -19.8 -271.9 24.1 -305.1C68 -338.2 136 -309.5 152.5 -253.7" fill="#2ad3af"></path></g></svg>