<svg id="visual" viewBox="0 0 900 600" width="900" height="600" xmlns="http://www.w3.org/2000/svg" xmlns:xlink="http://www.w3.org/1999/xlink" version="1.1"><g><g transform="translate(70 495)"><path d="M76.4 -71C99.1 -53.6 117.8 -26.8 122.6 4.8C127.4 36.5 118.5 73 95.7 87.9C73 102.8 36.5 96.1 9.6 86.5C-17.4 76.9 -34.7 64.5 -51.3 49.6C-67.9 34.7 -83.7 17.4 -87.1 -3.4C-90.5 -24.2 -81.6 -48.4 -65 -65.8C-48.4 -83.2 -24.2 -93.8 1.3 -95.1C26.8 -96.4 53.6 -88.4 76.4 -71Z" fill="#00948b"></path></g><g transform="translate(769 29)"><path d="M23.3 -22.6C29.9 -16.8 34.6 -8.4 37.6 3C40.6 14.4 41.9 28.8 35.4 42C28.8 55.1 14.4 67 -0.9 67.9C-16.1 68.7 -32.3 58.6 -44.4 45.4C-56.6 32.3 -64.8 16.1 -64.6 0.2C-64.4 -15.7 -55.7 -31.4 -43.5 -37.2C-31.4 -43 -15.7 -39 -3.6 -35.4C8.4 -31.8 16.8 -28.5 23.3 -22.6Z" fill="#00948b"></path></g><g transform="translate(285 265)"><path d="M62.8 -56.1C78.3 -47.3 85.8 -23.6 88.2 2.4C90.7 28.5 88.1 57 72.5 72.2C57 87.4 28.5 89.4 4 85.4C-20.5 81.4 -41 71.5 -50.2 56.3C-59.4 41 -57.3 20.5 -60.9 -3.6C-64.4 -27.7 -73.7 -55.3 -64.5 -64.2C-55.3 -73.1 -27.7 -63.3 -2 -61.2C23.6 -59.2 47.3 -65 62.8 -56.1Z" fill="#00948b"></path></g><g transform="translate(863 512)"><path d="M27.5 -29.7C36.5 -18.5 45.3 -9.2 45.3 0C45.3 9.3 36.6 18.5 27.6 24.9C18.5 31.2 9.3 34.5 0.7 33.8C-7.8 33 -15.5 28.2 -22.5 21.9C-29.5 15.5 -35.7 7.8 -36.3 -0.6C-36.9 -9 -32 -18 -25 -29.3C-18 -40.5 -9 -54.1 0.1 -54.2C9.2 -54.3 18.5 -41 27.5 -29.7Z" fill="#00948b"></path></g><g transform="translate(547 462)"><path d="M51.5 -55.3C60.9 -42.2 58.6 -21.1 54.5 -4.1C50.3 12.8 44.4 25.6 35 34.3C25.6 43.1 12.8 47.7 -1.4 49.1C-15.6 50.5 -31.1 48.6 -38.3 39.8C-45.5 31.1 -44.3 15.6 -45.6 -1.2C-46.8 -18 -50.4 -36.1 -43.3 -49.2C-36.1 -62.3 -18 -70.5 1.5 -72C21.1 -73.5 42.2 -68.4 51.5 -55.3Z" fill="#00948b"></path></g><g transform="translate(53 37)"><path d="M44.5 -38.2C62.5 -26.5 85.3 -13.2 86.1 0.8C87 14.9 65.8 29.8 47.8 45.2C29.8 60.5 14.9 76.3 -4.7 81.1C-24.3 85.8 -48.7 79.4 -66.8 64C-84.9 48.7 -96.7 24.3 -96.4 0.3C-96.1 -23.8 -83.7 -47.6 -65.6 -59.3C-47.6 -71.1 -23.8 -70.8 -5.3 -65.5C13.2 -60.2 26.5 -50 44.5 -38.2Z" fill="#00948b"></path></g></g></svg>