<svg id="visual" viewBox="0 0 900 600" width="900" height="600" xmlns="http://www.w3.org/2000/svg" xmlns:xlink="http://www.w3.org/1999/xlink" version="1.1"><g><g transform="translate(545 32)"><path d="M74.9 -86.7C86.4 -63.3 77.8 -31.7 69.1 -8.7C60.4 14.2 51.6 28.5 40 49.7C28.5 70.9 14.2 99.1 -0.1 99.1C-14.4 99.2 -28.8 71.2 -52.2 50C-75.6 28.8 -108.1 14.4 -111.7 -3.6C-115.2 -21.5 -89.9 -43 -66.5 -66.4C-43 -89.9 -21.5 -115.1 5.1 -120.2C31.7 -125.3 63.3 -110.1 74.9 -86.7Z" fill="#00948b"></path></g><g transform="translate(141 445)"><path d="M37.8 -36.1C50.4 -25.2 63 -12.6 68.5 5.5C74 23.6 72.4 47.2 59.8 58.8C47.2 70.3 23.6 69.8 -4.7 74.6C-33.1 79.3 -66.1 89.2 -76.9 77.7C-87.7 66.1 -76.1 33.1 -66.9 9.2C-57.7 -14.6 -50.7 -29.2 -39.9 -40.1C-29.2 -51.1 -14.6 -58.4 -1 -57.4C12.6 -56.4 25.2 -47.1 37.8 -36.1Z" fill="#00948b"></path></g><g transform="translate(483 442)"><path d="M59.8 -60.3C76.6 -43 88.7 -21.5 88.1 -0.6C87.5 20.3 74.2 40.6 57.4 51.6C40.6 62.5 20.3 64.1 0 64.1C-20.4 64.1 -40.7 62.6 -52.5 51.7C-64.2 40.7 -67.3 20.4 -63.5 3.8C-59.7 -12.8 -49 -25.5 -37.3 -42.9C-25.5 -60.2 -12.8 -82 4.4 -86.4C21.5 -90.7 43 -77.6 59.8 -60.3Z" fill="#00948b"></path></g><g transform="translate(831 435)"><path d="M43.7 -49.2C49.5 -38 42 -19 41.3 -0.7C40.6 17.6 46.7 35.2 40.9 42.5C35.2 49.9 17.6 47 1 46.1C-15.7 45.1 -31.3 46 -37.1 38.7C-42.8 31.3 -38.6 15.7 -34.7 3.9C-30.7 -7.8 -27.1 -15.6 -21.3 -26.8C-15.6 -38 -7.8 -52.7 5.6 -58.3C19 -63.9 38 -60.4 43.7 -49.2Z" fill="#00948b"></path></g><g transform="translate(56 35)"><path d="M33.6 -30.2C45.9 -21.3 59.8 -10.7 60.9 1.1C62.1 13 50.5 25.9 38.2 37.9C25.9 49.9 13 60.9 -2.9 63.8C-18.9 66.7 -37.7 61.7 -49.3 49.7C-60.9 37.7 -65.3 18.9 -68.4 -3.1C-71.5 -25.1 -73.4 -50.2 -61.8 -59.1C-50.2 -67.9 -25.1 -60.5 -7.2 -53.3C10.7 -46.1 21.3 -39 33.6 -30.2Z" fill="#00948b"></path></g><g transform="translate(880 12)"><path d="M44.4 -43C56.8 -32 65.6 -16 64.6 -1C63.6 14 52.8 28 40.4 33.1C28 38.3 14 34.6 -0.9 35.6C-15.8 36.5 -31.7 42 -40.9 36.9C-50.2 31.7 -52.9 15.8 -52.3 0.6C-51.8 -14.7 -48 -29.5 -38.7 -40.5C-29.5 -51.5 -14.7 -58.8 0.6 -59.5C16 -60.1 32 -54 44.4 -43Z" fill="#00948b"></path></g></g></svg>