<svg id="visual" viewBox="0 0 900 600" width="900" height="600" xmlns="http://www.w3.org/2000/svg" xmlns:xlink="http://www.w3.org/1999/xlink" version="1.1"><g transform="translate(539.4184918262471 291.3707358457184)"><path d="M135.6 -212.6C150.4 -175.8 119.8 -102.4 106.7 -55.3C93.7 -8.2 98.2 12.6 107.8 51.1C117.5 89.7 132.2 146 115.1 187.9C98 229.8 49 257.4 -2.4 260.8C-53.9 264.2 -107.8 243.3 -155.9 211.5C-204.1 179.6 -246.6 136.8 -279.1 80.4C-311.6 24 -334.1 -45.9 -304.8 -87.5C-275.4 -129 -194.1 -142.2 -134.7 -164.5C-75.2 -186.9 -37.6 -218.4 11.4 -234.1C60.3 -249.7 120.7 -249.5 135.6 -212.6" fill="#2ad3af"></path></g></svg>