<svg id="visual" viewBox="0 0 3440 1440" width="3440" height="1440" xmlns="http://www.w3.org/2000/svg" xmlns:xlink="http://www.w3.org/1999/xlink" version="1.1"><path d="M0 169L95.5 204.3C191 239.7 382 310.3 573.2 319.3C764.3 328.3 955.7 275.7 1146.8 222C1338 168.3 1529 113.7 1720 90C1911 66.3 2102 73.7 2293.2 78.2C2484.3 82.7 2675.7 84.3 2866.8 116.3C3058 148.3 3249 210.7 3344.5 241.8L3440 273L3440 0L3344.5 0C3249 0 3058 0 2866.8 0C2675.7 0 2484.3 0 2293.2 0C2102 0 1911 0 1720 0C1529 0 1338 0 1146.8 0C955.7 0 764.3 0 573.2 0C382 0 191 0 95.5 0L0 0Z" fill="#715DF2" stroke-linecap="round" stroke-linejoin="miter"></path></svg>