<svg id="visual" viewBox="0 0 3440 1380" width="3440" height="1380" xmlns="http://www.w3.org/2000/svg" xmlns:xlink="http://www.w3.org/1999/xlink" version="1.1"><path d="M0 772L114.7 706.8C229.3 641.7 458.7 511.3 688 443.5C917.3 375.7 1146.7 370.3 1376 460C1605.3 549.7 1834.7 734.3 2064 726.2C2293.3 718 2522.7 517 2752 509.2C2981.3 501.3 3210.7 686.7 3325.3 779.3L3440 872L3440 0L3325.3 0C3210.7 0 2981.3 0 2752 0C2522.7 0 2293.3 0 2064 0C1834.7 0 1605.3 0 1376 0C1146.7 0 917.3 0 688 0C458.7 0 229.3 0 114.7 0L0 0Z" fill="#001122" stroke-linecap="round" stroke-linejoin="miter"></path></svg>