<svg id="visual" viewBox="0 0 3440 1380" width="3440" height="1380" xmlns="http://www.w3.org/2000/svg" xmlns:xlink="http://www.w3.org/1999/xlink" version="1.1"><path d="M0 976L114.7 942.3C229.3 908.7 458.7 841.3 688 786.5C917.3 731.7 1146.7 689.3 1376 694.3C1605.3 699.3 1834.7 751.7 2064 689.8C2293.3 628 2522.7 452 2752 429.8C2981.3 407.7 3210.7 539.3 3325.3 605.2L3440 671L3440 0L3325.3 0C3210.7 0 2981.3 0 2752 0C2522.7 0 2293.3 0 2064 0C1834.7 0 1605.3 0 1376 0C1146.7 0 917.3 0 688 0C458.7 0 229.3 0 114.7 0L0 0Z" fill="#001122" stroke-linecap="round" stroke-linejoin="miter"></path></svg>