<svg id="visual" viewBox="0 0 3440 1380" width="3440" height="1380" xmlns="http://www.w3.org/2000/svg" xmlns:xlink="http://www.w3.org/1999/xlink" version="1.1"><path d="M0 901L114.7 930.3C229.3 959.7 458.7 1018.3 688 1041.3C917.3 1064.3 1146.7 1051.7 1376 963.5C1605.3 875.3 1834.7 711.7 2064 633.7C2293.3 555.7 2522.7 563.3 2752 659.2C2981.3 755 3210.7 939 3325.3 1031L3440 1123L3440 1381L3325.3 1381C3210.7 1381 2981.3 1381 2752 1381C2522.7 1381 2293.3 1381 2064 1381C1834.7 1381 1605.3 1381 1376 1381C1146.7 1381 917.3 1381 688 1381C458.7 1381 229.3 1381 114.7 1381L0 1381Z" fill="#001122" stroke-linecap="round" stroke-linejoin="miter"></path></svg>