<svg id="visual" viewBox="0 0 3440 1440" width="3440" height="1440" xmlns="http://www.w3.org/2000/svg" xmlns:xlink="http://www.w3.org/1999/xlink" version="1.1"><path d="M0 648L95.5 722.2C191 796.3 382 944.7 573.2 971C764.3 997.3 955.7 901.7 1146.8 788.7C1338 675.7 1529 545.3 1720 470.2C1911 395 2102 375 2293.2 502.2C2484.3 629.3 2675.7 903.7 2866.8 998.7C3058 1093.7 3249 1009.3 3344.5 967.2L3440 925L3440 1441L3344.5 1441C3249 1441 3058 1441 2866.8 1441C2675.7 1441 2484.3 1441 2293.2 1441C2102 1441 1911 1441 1720 1441C1529 1441 1338 1441 1146.8 1441C955.7 1441 764.3 1441 573.2 1441C382 1441 191 1441 95.5 1441L0 1441Z" fill="#715DF2" stroke-linecap="round" stroke-linejoin="miter"></path></svg>