<svg id="visual" viewBox="0 0 960 540" width="960" height="540" xmlns="http://www.w3.org/2000/svg" xmlns:xlink="http://www.w3.org/1999/xlink" version="1.1"><path d="M0 383L22.8 377.8C45.7 372.7 91.3 362.3 137 355.3C182.7 348.3 228.3 344.7 274 347.8C319.7 351 365.3 361 411.2 369.5C457 378 503 385 548.8 391.7C594.7 398.3 640.3 404.7 686 412.3C731.7 420 777.3 429 823 430C868.7 431 914.3 424 937.2 420.5L960 417L960 541L937.2 541C914.3 541 868.7 541 823 541C777.3 541 731.7 541 686 541C640.3 541 594.7 541 548.8 541C503 541 457 541 411.2 541C365.3 541 319.7 541 274 541C228.3 541 182.7 541 137 541C91.3 541 45.7 541 22.8 541L0 541Z" fill="#715DF2" stroke-linecap="round" stroke-linejoin="miter"></path></svg>