<svg id="visual" viewBox="0 0 3440 1440" width="3440" height="1440" xmlns="http://www.w3.org/2000/svg" xmlns:xlink="http://www.w3.org/1999/xlink" version="1.1"><path d="M0 1024L81.8 1010.2C163.7 996.3 327.3 968.7 491.2 949.7C655 930.7 819 920.3 982.8 928.5C1146.7 936.7 1310.3 963.3 1474.2 986.3C1638 1009.3 1802 1028.7 1965.8 1046.8C2129.7 1065 2293.3 1082 2457.2 1102.3C2621 1122.7 2785 1146.3 2948.8 1148.7C3112.7 1151 3276.3 1132 3358.2 1122.5L3440 1113L3440 1441L3358.2 1441C3276.3 1441 3112.7 1441 2948.8 1441C2785 1441 2621 1441 2457.2 1441C2293.3 1441 2129.7 1441 1965.8 1441C1802 1441 1638 1441 1474.2 1441C1310.3 1441 1146.7 1441 982.8 1441C819 1441 655 1441 491.2 1441C327.3 1441 163.7 1441 81.8 1441L0 1441Z" fill="#715DF2" stroke-linecap="round" stroke-linejoin="miter"></path></svg>