<svg id="visual" viewBox="0 0 3440 1380" width="3440" height="1380" xmlns="http://www.w3.org/2000/svg" xmlns:xlink="http://www.w3.org/1999/xlink" version="1.1"><path d="M0 332L114.7 336.7C229.3 341.3 458.7 350.7 688 428C917.3 505.3 1146.7 650.7 1376 711.3C1605.3 772 1834.7 748 2064 723C2293.3 698 2522.7 672 2752 614.7C2981.3 557.3 3210.7 468.7 3325.3 424.3L3440 380L3440 0L3325.3 0C3210.7 0 2981.3 0 2752 0C2522.7 0 2293.3 0 2064 0C1834.7 0 1605.3 0 1376 0C1146.7 0 917.3 0 688 0C458.7 0 229.3 0 114.7 0L0 0Z" fill="#001122" stroke-linecap="round" stroke-linejoin="miter"></path></svg>